<?xml version="1.0" standalone="no"?>
<!DOCTYPE svg PUBLIC "-//W3C//DTD SVG 20010904//EN"
 "http://www.w3.org/TR/2001/REC-SVG-20010904/DTD/svg10.dtd">
<svg version="1.0" xmlns="http://www.w3.org/2000/svg"
 width="162.000000pt" height="162.000000pt" viewBox="0 0 162.000000 162.000000"
 preserveAspectRatio="xMidYMid meet">
<metadata>
Created by potrace 1.11, written by Peter Selinger 2001-2013
</metadata>
<g transform="translate(0.000000,162.000000) scale(0.100000,-0.100000)"
fill="#000000" stroke="none">
<path d="M754 1262 c-6 -4 -16 -41 -23 -82 -7 -41 -19 -106 -27 -145 -7 -38
-16 -83 -19 -100 -2 -16 -7 -40 -9 -52 -3 -11 -8 -42 -11 -67 -4 -25 -10 -46
-14 -46 -3 0 -14 14 -23 30 -21 37 -33 38 -51 4 l-14 -26 -13 47 c-16 56 -36
67 -62 34 -11 -13 -25 -31 -32 -40 -11 -13 -45 -16 -227 -18 -122 -1 -218 -6
-223 -11 -26 -26 16 -32 231 -31 202 1 220 3 246 22 l27 20 11 -28 c6 -15 14
-39 18 -53 10 -36 48 -39 57 -5 6 24 8 23 31 -26 35 -78 49 -58 79 116 2 17 7
37 9 45 2 8 7 33 10 55 10 74 33 170 35 148 2 -13 3 -26 4 -30 1 -5 6 -53 11
-108 4 -55 9 -107 10 -115 1 -8 5 -55 9 -105 4 -49 9 -101 11 -115 2 -14 7
-65 10 -115 7 -96 19 -126 41 -103 7 7 15 27 17 43 15 91 69 393 74 409 4 15
12 3 30 -45 35 -95 41 -98 95 -51 l45 39 239 2 c137 1 243 6 248 11 20 20 -13
33 -81 32 -37 0 -148 0 -245 -1 l-177 -1 -34 -29 -33 -30 -33 89 c-32 84 -53
112 -73 92 -9 -9 -14 -29 -23 -97 -4 -22 -10 -56 -14 -75 -5 -19 -14 -70 -21
-113 -7 -42 -14 -76 -16 -75 -1 2 -5 32 -9 68 -3 36 -8 81 -10 100 -2 19 -7
67 -10 105 -3 39 -8 88 -10 110 -3 22 -7 72 -10 110 -17 227 -18 230 -51 207z"/>
</g>
</svg>
